<?xml version="1.0" encoding="utf-8"?>
<!-- Generator: Adobe Illustrator 16.0.0, SVG Export Plug-In . SVG Version: 6.00 Build 0)  -->
<!DOCTYPE svg PUBLIC "-//W3C//DTD SVG 1.1//EN" "http://www.w3.org/Graphics/SVG/1.1/DTD/svg11.dtd">
<svg version="1.1" id="Layer_1" xmlns="http://www.w3.org/2000/svg" xmlns:xlink="http://www.w3.org/1999/xlink" x="0px" y="0px"
	 width="166.9px" height="16.349px" viewBox="21.352 4.183 166.9 16.349" enable-background="new 21.352 4.183 166.9 16.349"
	 xml:space="preserve">
<g>
	<path d="M29.115,19.89c-1.029,0-2.006-0.188-2.928-0.562c-0.951-0.376-1.806-0.943-2.568-1.707
		c-0.722-0.721-1.291-1.576-1.706-2.565c-0.187-0.469-0.328-0.944-0.422-1.425c-0.092-0.482-0.14-0.977-0.14-1.484
		c0-0.977,0.188-1.953,0.562-2.929c0.415-0.99,0.983-1.838,1.705-2.547c0.763-0.763,1.617-1.331,2.568-1.705
		c0.963-0.388,1.939-0.581,2.929-0.581c1.002,0,1.972,0.194,2.909,0.581c0.95,0.374,1.806,0.942,2.567,1.705l-1.925,1.906
		c-0.496-0.495-1.05-0.862-1.665-1.103c-0.615-0.241-1.247-0.361-1.896-0.361c-0.649,0-1.282,0.12-1.896,0.361
		c-0.616,0.241-1.17,0.608-1.665,1.103c-0.483,0.481-0.852,1.027-1.106,1.634c-0.253,0.61-0.38,1.255-0.38,1.937
		s0.127,1.328,0.38,1.936c0.254,0.609,0.623,1.153,1.104,1.635c0.468,0.47,1.009,0.83,1.625,1.084
		c0.615,0.253,1.264,0.381,1.945,0.381c0.682,0,1.328-0.128,1.937-0.381c0.608-0.254,1.146-0.614,1.614-1.084l1.926,1.906
		c-0.763,0.762-1.618,1.332-2.568,1.705C31.114,19.703,30.144,19.89,29.115,19.89z"/>
	<path d="M47.991,13.41c-0.066,0.042-0.141,0.079-0.22,0.112c-0.081,0.033-0.155,0.063-0.221,0.089l4.031,6.3h-3.208l-3.872-6.019
		h-0.882v6.019h-2.708V4.423h6.619c0.709,0.228,1.324,0.602,1.845,1.124c0.429,0.441,0.759,0.942,0.993,1.504
		c0.233,0.562,0.351,1.157,0.351,1.786c0,0.602-0.11,1.2-0.331,1.795c-0.22,0.596-0.539,1.133-0.952,1.614
		C48.994,12.755,48.513,13.143,47.991,13.41z M46.086,11.184c0.307,0,0.575-0.083,0.802-0.25c0.228-0.168,0.395-0.318,0.501-0.452
		c0.2-0.227,0.354-0.488,0.461-0.782s0.161-0.581,0.161-0.862c0-0.268-0.051-0.518-0.15-0.752c-0.101-0.234-0.237-0.441-0.411-0.622
		c-0.174-0.181-0.378-0.321-0.613-0.421c-0.234-0.101-0.484-0.15-0.751-0.15h-2.468v4.292H46.086L46.086,11.184z"/>
	<path d="M65.263,20.532c-1.111,0-2.173-0.221-3.189-0.662c-0.482-0.199-0.941-0.444-1.375-0.732
		c-0.434-0.288-0.839-0.624-1.213-1.014c-0.389-0.374-0.725-0.779-1.013-1.212c-0.289-0.435-0.532-0.893-0.732-1.375
		c-0.441-1.017-0.663-2.079-0.663-3.189c0-1.097,0.222-2.159,0.663-3.189c0.2-0.481,0.443-0.94,0.732-1.375
		c0.288-0.435,0.625-0.839,1.013-1.213c0.762-0.763,1.625-1.344,2.588-1.746c0.988-0.428,2.053-0.642,3.189-0.642
		c1.136,0,2.2,0.214,3.189,0.642c0.963,0.401,1.826,0.982,2.588,1.746c0.762,0.762,1.344,1.625,1.745,2.588
		c0.428,0.99,0.642,2.052,0.642,3.189s-0.214,2.199-0.642,3.189c-0.401,0.962-0.983,1.826-1.745,2.587
		c-0.374,0.39-0.78,0.726-1.214,1.014c-0.435,0.288-0.892,0.531-1.374,0.732C67.423,20.311,66.361,20.532,65.263,20.532z
		 M65.263,6.891c-0.75,0-1.458,0.145-2.126,0.432c-0.669,0.288-1.25,0.679-1.746,1.173c-0.494,0.496-0.886,1.073-1.173,1.736
		c-0.288,0.662-0.432,1.368-0.432,2.116c0,0.75,0.143,1.458,0.432,2.127c0.287,0.669,0.679,1.251,1.173,1.745
		c0.496,0.494,1.077,0.886,1.746,1.172c0.669,0.289,1.376,0.433,2.126,0.433c0.748,0,1.455-0.143,2.117-0.433
		c0.663-0.286,1.24-0.678,1.735-1.172c0.495-0.496,0.886-1.076,1.173-1.745c0.289-0.669,0.432-1.377,0.432-2.127
		c0-0.747-0.144-1.454-0.432-2.116c-0.287-0.663-0.678-1.24-1.173-1.736C68.62,8.001,68.042,7.61,67.38,7.323
		C66.718,7.036,66.012,6.891,65.263,6.891z"/>
	<path d="M85.323,20.532c-1.109,0-2.172-0.221-3.189-0.662c-0.48-0.199-0.939-0.444-1.374-0.732s-0.839-0.624-1.214-1.014
		c-0.388-0.374-0.725-0.779-1.012-1.212c-0.288-0.435-0.532-0.893-0.732-1.375c-0.442-1.017-0.662-2.079-0.662-3.189
		c0-1.097,0.22-2.159,0.662-3.189c0.2-0.481,0.445-0.94,0.732-1.375c0.287-0.435,0.625-0.839,1.012-1.213
		c0.762-0.763,1.625-1.344,2.588-1.746c0.989-0.428,2.053-0.642,3.189-0.642c1.137,0,2.201,0.214,3.19,0.642
		c0.963,0.401,1.825,0.982,2.588,1.746c0.761,0.762,1.343,1.625,1.744,2.588c0.428,0.99,0.641,2.052,0.641,3.189
		s-0.214,2.199-0.641,3.189c-0.401,0.962-0.983,1.826-1.744,2.587c-0.376,0.39-0.78,0.726-1.214,1.014
		c-0.435,0.288-0.893,0.531-1.375,0.732C87.483,20.311,86.419,20.532,85.323,20.532z M85.323,6.891
		c-0.749,0-1.458,0.145-2.126,0.432c-0.668,0.288-1.25,0.679-1.744,1.173c-0.497,0.496-0.887,1.073-1.174,1.736
		c-0.287,0.662-0.432,1.368-0.432,2.116c0,0.75,0.144,1.458,0.432,2.127c0.288,0.669,0.679,1.251,1.174,1.745
		c0.494,0.494,1.076,0.886,1.744,1.172c0.668,0.289,1.377,0.433,2.126,0.433c0.749,0,1.455-0.143,2.117-0.433
		c0.663-0.286,1.24-0.678,1.736-1.172c0.495-0.496,0.886-1.076,1.173-1.745c0.287-0.669,0.431-1.377,0.431-2.127
		c0-0.747-0.144-1.454-0.431-2.116c-0.288-0.663-0.68-1.24-1.173-1.736c-0.496-0.494-1.073-0.885-1.736-1.173
		C86.778,7.036,86.072,6.891,85.323,6.891z"/>
	<path d="M104.501,11.886l6.299,8.024h-3.449l-4.554-5.838l-0.121,0.16v5.678h-2.707V4.423h2.707v5.116l0.121,0.14l4.113-5.257
		h3.449L104.501,11.886z"/>
	<path d="M127.971,12.167c0.44,0.429,0.778,0.922,1.013,1.484c0.233,0.562,0.35,1.157,0.35,1.785s-0.116,1.224-0.35,1.785
		c-0.234,0.562-0.572,1.062-1.013,1.505c-0.309,0.308-0.647,0.562-1.013,0.763c-0.368,0.2-0.751,0.353-1.154,0.46h-6.278V4.464
		h5.657c0.815,0.214,1.51,0.608,2.087,1.183c0.428,0.441,0.759,0.94,0.993,1.494c0.232,0.555,0.35,1.147,0.35,1.775
		c0,1.083-0.341,2.046-1.023,2.89c0.066,0.066,0.131,0.127,0.19,0.181C127.842,12.04,127.905,12.1,127.971,12.167z M122.234,10.802
		h1.785c0.253,0,0.499-0.049,0.733-0.15c0.232-0.101,0.434-0.234,0.601-0.402c0.166-0.166,0.301-0.365,0.402-0.592
		c0.099-0.227,0.149-0.474,0.149-0.742c0-0.254-0.051-0.498-0.149-0.731c-0.102-0.234-0.236-0.438-0.402-0.612
		c-0.167-0.173-0.368-0.311-0.601-0.412c-0.234-0.1-0.48-0.149-0.733-0.149h-1.785V10.802z M124.701,17.363
		c0.534,0,0.989-0.187,1.364-0.562c0.374-0.375,0.561-0.829,0.561-1.364s-0.187-0.989-0.561-1.364
		c-0.375-0.373-0.83-0.562-1.364-0.562h-2.468v3.853H124.701z"/>
	<path d="M142.716,20.532c-1.109,0-2.173-0.221-3.189-0.662c-0.481-0.199-0.94-0.444-1.374-0.732
		c-0.435-0.288-0.84-0.624-1.215-1.014c-0.387-0.374-0.726-0.779-1.012-1.212c-0.288-0.435-0.532-0.893-0.734-1.375
		c-0.441-1.017-0.66-2.079-0.66-3.189c0-1.097,0.219-2.159,0.66-3.189c0.202-0.481,0.446-0.94,0.734-1.375
		c0.285-0.435,0.624-0.839,1.012-1.213c0.763-0.763,1.625-1.344,2.589-1.746c0.989-0.428,2.052-0.642,3.189-0.642
		c1.137,0,2.2,0.214,3.188,0.642c0.964,0.401,1.826,0.982,2.589,1.746c0.761,0.762,1.344,1.625,1.744,2.588
		c0.428,0.99,0.643,2.052,0.643,3.189s-0.215,2.199-0.643,3.189c-0.4,0.962-0.983,1.826-1.744,2.587
		c-0.375,0.39-0.778,0.726-1.213,1.014s-0.894,0.531-1.376,0.732C144.874,20.311,143.81,20.532,142.716,20.532z M142.716,6.891
		c-0.749,0-1.459,0.145-2.127,0.432c-0.668,0.288-1.251,0.679-1.744,1.173c-0.495,0.496-0.886,1.073-1.174,1.736
		c-0.287,0.662-0.432,1.368-0.432,2.116c0,0.75,0.145,1.458,0.432,2.127s0.679,1.251,1.174,1.745
		c0.493,0.494,1.077,0.886,1.744,1.172c0.668,0.289,1.378,0.433,2.127,0.433s1.454-0.143,2.116-0.433
		c0.662-0.286,1.24-0.678,1.734-1.172c0.496-0.496,0.887-1.076,1.175-1.745c0.286-0.669,0.432-1.377,0.432-2.127
		c0-0.747-0.146-1.454-0.432-2.116c-0.288-0.663-0.679-1.24-1.175-1.736c-0.494-0.494-1.072-0.885-1.734-1.173
		C144.17,7.036,143.465,6.891,142.716,6.891z"/>
	<path d="M162.775,20.532c-1.111,0-2.173-0.221-3.189-0.662c-0.481-0.199-0.939-0.444-1.374-0.732
		c-0.436-0.288-0.841-0.624-1.214-1.014c-0.389-0.374-0.726-0.779-1.014-1.212c-0.285-0.435-0.53-0.893-0.731-1.375
		c-0.442-1.017-0.662-2.079-0.662-3.189c0-1.097,0.22-2.159,0.662-3.189c0.201-0.481,0.446-0.94,0.731-1.375
		c0.288-0.435,0.625-0.839,1.014-1.213c0.762-0.763,1.625-1.344,2.588-1.746c0.989-0.428,2.052-0.642,3.189-0.642
		c1.137,0,2.2,0.214,3.19,0.642c0.961,0.401,1.825,0.982,2.586,1.746c0.764,0.762,1.344,1.625,1.746,2.588
		c0.427,0.99,0.643,2.052,0.643,3.189s-0.216,2.199-0.643,3.189c-0.403,0.962-0.982,1.826-1.746,2.587
		c-0.373,0.39-0.778,0.726-1.213,1.014c-0.436,0.288-0.891,0.531-1.373,0.732C164.934,20.311,163.872,20.532,162.775,20.532z
		 M162.775,6.891c-0.75,0-1.458,0.145-2.125,0.432c-0.67,0.288-1.252,0.679-1.745,1.173c-0.497,0.496-0.889,1.073-1.175,1.736
		c-0.288,0.662-0.431,1.368-0.431,2.116c0,0.75,0.143,1.458,0.431,2.127c0.286,0.669,0.678,1.251,1.175,1.745
		c0.493,0.494,1.075,0.886,1.745,1.172c0.667,0.289,1.375,0.433,2.125,0.433c0.749,0,1.454-0.143,2.116-0.433
		c0.663-0.286,1.24-0.678,1.736-1.172c0.493-0.496,0.885-1.076,1.172-1.745c0.288-0.669,0.432-1.377,0.432-2.127
		c0-0.747-0.144-1.454-0.432-2.116c-0.286-0.663-0.679-1.24-1.172-1.736c-0.496-0.494-1.073-0.885-1.736-1.173
		C164.229,7.036,163.524,6.891,162.775,6.891z"/>
	<path d="M181.952,11.886l6.3,8.024h-3.449l-4.555-5.838l-0.12,0.16v5.678h-2.708V4.423h2.708v5.116l0.12,0.14l4.112-5.257h3.449
		L181.952,11.886z"/>
</g>
</svg>
