<?xml version="1.0" encoding="utf-8"?>
<!-- Generator: Adobe Illustrator 16.0.0, SVG Export Plug-In . SVG Version: 6.00 Build 0)  -->
<!DOCTYPE svg PUBLIC "-//W3C//DTD SVG 1.1//EN" "http://www.w3.org/Graphics/SVG/1.1/DTD/svg11.dtd">
<svg version="1.1" id="Layer_1" xmlns="http://www.w3.org/2000/svg" xmlns:xlink="http://www.w3.org/1999/xlink" x="0px" y="0px"
	 width="209.603px" height="20.532px" viewBox="0 0 209.603 20.532" enable-background="new 0 0 209.603 20.532"
	 xml:space="preserve">
<g>
	<path d="M9.75,19.726c-1.293,0-2.52-0.236-3.678-0.706c-1.193-0.47-2.268-1.184-3.226-2.142c-0.906-0.907-1.621-1.981-2.141-3.224
		c-0.235-0.588-0.412-1.185-0.53-1.789C0.059,11.261,0,10.64,0,10.001C0,8.775,0.235,7.55,0.706,6.323
		c0.52-1.243,1.234-2.309,2.141-3.199c0.958-0.958,2.032-1.671,3.226-2.142c1.209-0.487,2.435-0.73,3.678-0.73
		c1.259,0,2.477,0.244,3.653,0.73c1.193,0.47,2.268,1.184,3.225,2.142l-2.418,2.393c-0.622-0.621-1.319-1.083-2.091-1.385
		c-0.773-0.303-1.567-0.454-2.381-0.454c-0.815,0-1.609,0.151-2.381,0.454c-0.773,0.302-1.47,0.764-2.091,1.385
		C4.661,6.122,4.198,6.807,3.879,7.57c-0.319,0.765-0.478,1.575-0.478,2.431s0.159,1.667,0.478,2.431
		c0.319,0.765,0.781,1.45,1.386,2.054c0.588,0.588,1.268,1.042,2.041,1.36c0.773,0.319,1.587,0.479,2.444,0.479
		c0.856,0,1.667-0.16,2.431-0.479c0.764-0.318,1.44-0.771,2.028-1.36l2.418,2.393c-0.958,0.958-2.032,1.672-3.225,2.142
		C12.26,19.49,11.042,19.726,9.75,19.726z"/>
	<path d="M33.456,11.589c-0.084,0.05-0.177,0.097-0.277,0.139c-0.101,0.042-0.194,0.08-0.277,0.112l5.063,7.912h-4.03l-4.862-7.559
		h-1.108v7.559h-3.401V0.302h8.313c0.89,0.286,1.663,0.755,2.317,1.411c0.538,0.554,0.953,1.184,1.247,1.889
		c0.293,0.705,0.441,1.453,0.441,2.243c0,0.755-0.139,1.507-0.416,2.254c-0.276,0.748-0.676,1.423-1.196,2.028
		C34.715,10.766,34.111,11.253,33.456,11.589z M31.062,8.792c0.386,0,0.722-0.104,1.007-0.314c0.286-0.21,0.496-0.399,0.63-0.567
		c0.251-0.286,0.445-0.613,0.579-0.983c0.135-0.369,0.202-0.73,0.202-1.082c0-0.336-0.063-0.651-0.189-0.945
		c-0.126-0.294-0.298-0.554-0.516-0.781c-0.219-0.227-0.475-0.403-0.769-0.529c-0.294-0.126-0.609-0.189-0.945-0.189h-3.099v5.391
		H31.062z"/>
	<path d="M55.146,20.532c-1.395,0-2.729-0.277-4.005-0.832c-0.605-0.251-1.181-0.558-1.726-0.92
		c-0.545-0.361-1.054-0.784-1.524-1.272c-0.488-0.47-0.911-0.978-1.272-1.523c-0.361-0.546-0.668-1.122-0.919-1.727
		c-0.554-1.276-0.832-2.611-0.832-4.005c0-1.377,0.278-2.712,0.832-4.005c0.251-0.605,0.558-1.18,0.919-1.726
		c0.361-0.546,0.785-1.054,1.272-1.524c0.957-0.958,2.041-1.688,3.25-2.192C52.383,0.269,53.719,0,55.146,0
		c1.427,0,2.763,0.269,4.006,0.806c1.209,0.504,2.293,1.234,3.25,2.192c0.957,0.957,1.688,2.04,2.192,3.25
		c0.537,1.243,0.806,2.578,0.806,4.005c0,1.428-0.269,2.763-0.806,4.005c-0.504,1.21-1.235,2.293-2.192,3.25
		c-0.47,0.488-0.979,0.911-1.524,1.272c-0.546,0.362-1.121,0.668-1.726,0.92C57.859,20.255,56.524,20.532,55.146,20.532z
		 M55.146,3.401c-0.941,0-1.831,0.181-2.67,0.542c-0.84,0.361-1.57,0.853-2.192,1.473c-0.621,0.622-1.113,1.348-1.474,2.18
		c-0.361,0.831-0.542,1.717-0.542,2.658c0,0.941,0.18,1.831,0.542,2.67c0.361,0.84,0.853,1.57,1.474,2.191
		c0.622,0.622,1.352,1.113,2.192,1.474c0.84,0.361,1.729,0.542,2.67,0.542c0.94,0,1.827-0.18,2.658-0.542
		c0.832-0.361,1.558-0.853,2.18-1.474c0.621-0.622,1.112-1.351,1.473-2.191c0.362-0.84,0.542-1.729,0.542-2.67
		c0-0.94-0.181-1.827-0.542-2.658c-0.361-0.832-0.852-1.558-1.473-2.18c-0.622-0.621-1.348-1.112-2.18-1.473
		C56.973,3.582,56.087,3.401,55.146,3.401z"/>
	<path d="M80.339,20.532c-1.394,0-2.729-0.277-4.005-0.832c-0.604-0.251-1.18-0.558-1.726-0.92
		c-0.546-0.361-1.054-0.784-1.524-1.272c-0.488-0.47-0.911-0.978-1.272-1.523c-0.361-0.546-0.668-1.122-0.92-1.727
		c-0.554-1.276-0.831-2.611-0.831-4.005c0-1.377,0.277-2.712,0.831-4.005c0.252-0.605,0.559-1.18,0.92-1.726
		c0.361-0.546,0.784-1.054,1.272-1.524c0.957-0.958,2.041-1.688,3.25-2.192C77.576,0.269,78.912,0,80.339,0
		c1.427,0,2.763,0.269,4.006,0.806c1.209,0.504,2.292,1.234,3.25,2.192c0.957,0.957,1.687,2.04,2.191,3.25
		c0.538,1.243,0.806,2.578,0.806,4.005c0,1.428-0.269,2.763-0.806,4.005c-0.504,1.21-1.234,2.293-2.191,3.25
		c-0.471,0.488-0.979,0.911-1.524,1.272c-0.546,0.362-1.121,0.668-1.726,0.92C83.052,20.255,81.716,20.532,80.339,20.532z
		 M80.339,3.401c-0.941,0-1.831,0.181-2.67,0.542c-0.84,0.361-1.571,0.853-2.191,1.473c-0.623,0.622-1.113,1.348-1.474,2.18
		c-0.361,0.831-0.542,1.717-0.542,2.658c0,0.941,0.18,1.831,0.542,2.67c0.361,0.84,0.852,1.57,1.474,2.191
		c0.621,0.622,1.352,1.113,2.191,1.474s1.729,0.542,2.67,0.542c0.94,0,1.827-0.18,2.658-0.542c0.832-0.361,1.557-0.853,2.18-1.474
		c0.621-0.622,1.112-1.351,1.473-2.191c0.361-0.84,0.542-1.729,0.542-2.67c0-0.94-0.181-1.827-0.542-2.658
		c-0.361-0.832-0.853-1.558-1.473-2.18c-0.623-0.621-1.348-1.112-2.18-1.473C82.166,3.582,81.28,3.401,80.339,3.401z"/>
	<path d="M104.424,9.674l7.91,10.078h-4.332l-5.719-7.331l-0.151,0.201v7.13h-3.4V0.302h3.4v6.424l0.151,0.176l5.165-6.601h4.332
		L104.424,9.674z"/>
	<path d="M133.9,10.027c0.553,0.538,0.978,1.158,1.272,1.865c0.293,0.705,0.439,1.453,0.439,2.242c0,0.789-0.146,1.536-0.439,2.241
		c-0.295,0.706-0.72,1.335-1.272,1.89c-0.388,0.387-0.812,0.706-1.272,0.958c-0.462,0.252-0.944,0.444-1.449,0.579h-7.885V0.353
		h7.104c1.025,0.269,1.897,0.764,2.621,1.486c0.536,0.554,0.952,1.18,1.247,1.877c0.293,0.697,0.44,1.44,0.44,2.229
		c0,1.36-0.429,2.569-1.285,3.628c0.084,0.084,0.164,0.16,0.239,0.227C133.736,9.867,133.816,9.943,133.9,10.027z M126.694,8.313
		h2.242c0.319,0,0.626-0.063,0.921-0.189c0.293-0.126,0.545-0.293,0.755-0.504c0.209-0.209,0.377-0.458,0.504-0.743
		c0.125-0.285,0.188-0.596,0.188-0.932c0-0.319-0.063-0.625-0.188-0.919c-0.127-0.294-0.295-0.55-0.504-0.768
		c-0.21-0.218-0.462-0.391-0.755-0.517c-0.295-0.126-0.602-0.188-0.921-0.188h-2.242V8.313z M129.793,16.552
		c0.671,0,1.242-0.234,1.713-0.706c0.47-0.47,0.704-1.041,0.704-1.712c0-0.672-0.234-1.243-0.704-1.713
		c-0.471-0.47-1.042-0.707-1.713-0.707h-3.1v4.838H129.793z"/>
	<path d="M152.417,20.532c-1.395,0-2.729-0.277-4.006-0.832c-0.605-0.251-1.181-0.558-1.726-0.92
		c-0.546-0.361-1.054-0.784-1.525-1.272c-0.486-0.47-0.911-0.978-1.271-1.523c-0.361-0.546-0.669-1.122-0.921-1.727
		c-0.555-1.276-0.831-2.611-0.831-4.005c0-1.377,0.276-2.712,0.831-4.005c0.252-0.605,0.56-1.18,0.921-1.726
		c0.359-0.546,0.784-1.054,1.271-1.524c0.958-0.958,2.041-1.688,3.251-2.192C149.653,0.269,150.988,0,152.417,0
		c1.427,0,2.762,0.269,4.005,0.806c1.209,0.504,2.293,1.234,3.25,2.192c0.957,0.957,1.688,2.04,2.191,3.25
		c0.537,1.243,0.807,2.578,0.807,4.005c0,1.428-0.27,2.763-0.807,4.005c-0.504,1.21-1.234,2.293-2.191,3.25
		c-0.47,0.488-0.978,0.911-1.523,1.272c-0.547,0.362-1.122,0.668-1.727,0.92C155.128,20.255,153.792,20.532,152.417,20.532z
		 M152.417,3.401c-0.942,0-1.832,0.181-2.671,0.542c-0.84,0.361-1.571,0.853-2.191,1.473c-0.623,0.622-1.113,1.348-1.474,2.18
		c-0.361,0.831-0.542,1.717-0.542,2.658c0,0.941,0.181,1.831,0.542,2.67c0.36,0.84,0.851,1.57,1.474,2.191
		c0.62,0.622,1.352,1.113,2.191,1.474c0.839,0.361,1.729,0.542,2.671,0.542c0.94,0,1.826-0.18,2.657-0.542
		c0.832-0.361,1.558-0.853,2.179-1.474c0.622-0.622,1.113-1.351,1.475-2.191c0.36-0.84,0.541-1.729,0.541-2.67
		c0-0.94-0.181-1.827-0.541-2.658c-0.361-0.832-0.853-1.558-1.475-2.18c-0.621-0.621-1.347-1.112-2.179-1.473
		C154.243,3.582,153.357,3.401,152.417,3.401z"/>
	<path d="M177.609,20.532c-1.396,0-2.729-0.277-4.006-0.832c-0.605-0.251-1.18-0.558-1.726-0.92
		c-0.546-0.361-1.055-0.784-1.524-1.272c-0.487-0.47-0.911-0.978-1.272-1.523c-0.36-0.546-0.667-1.122-0.919-1.727
		c-0.556-1.276-0.831-2.611-0.831-4.005c0-1.377,0.275-2.712,0.831-4.005c0.252-0.605,0.559-1.18,0.919-1.726
		c0.361-0.546,0.785-1.054,1.272-1.524c0.957-0.958,2.041-1.688,3.25-2.192C174.845,0.269,176.18,0,177.609,0
		c1.428,0,2.763,0.269,4.006,0.806c1.208,0.504,2.293,1.234,3.249,2.192c0.958,0.957,1.688,2.04,2.191,3.25
		c0.538,1.243,0.808,2.578,0.808,4.005c0,1.428-0.27,2.763-0.808,4.005c-0.504,1.21-1.233,2.293-2.191,3.25
		c-0.47,0.488-0.978,0.911-1.523,1.272c-0.547,0.362-1.121,0.668-1.726,0.92C180.321,20.255,178.986,20.532,177.609,20.532z
		 M177.609,3.401c-0.941,0-1.831,0.181-2.67,0.542c-0.841,0.361-1.571,0.853-2.191,1.473c-0.623,0.622-1.114,1.348-1.475,2.18
		c-0.361,0.831-0.541,1.717-0.541,2.658c0,0.941,0.18,1.831,0.541,2.67c0.36,0.84,0.852,1.57,1.475,2.191
		c0.62,0.622,1.351,1.113,2.191,1.474c0.839,0.361,1.729,0.542,2.67,0.542c0.94,0,1.826-0.18,2.657-0.542
		c0.832-0.361,1.558-0.853,2.18-1.474c0.621-0.622,1.112-1.351,1.474-2.191c0.36-0.84,0.542-1.729,0.542-2.67
		c0-0.94-0.182-1.827-0.542-2.658c-0.361-0.832-0.853-1.558-1.474-2.18c-0.622-0.621-1.348-1.112-2.18-1.473
		C179.435,3.582,178.549,3.401,177.609,3.401z"/>
	<path d="M201.693,9.674l7.91,10.078h-4.332l-5.719-7.331l-0.151,0.201v7.13H196V0.302h3.401v6.424l0.151,0.176l5.165-6.601h4.332
		L201.693,9.674z"/>
</g>
</svg>
