<?xml version="1.0" encoding="utf-8"?>
<!-- Generator: Adobe Illustrator 16.0.0, SVG Export Plug-In . SVG Version: 6.00 Build 0)  -->
<!DOCTYPE svg PUBLIC "-//W3C//DTD SVG 1.1//EN" "http://www.w3.org/Graphics/SVG/1.1/DTD/svg11.dtd">
<svg version="1.1" id="Layer_1" xmlns="http://www.w3.org/2000/svg" xmlns:xlink="http://www.w3.org/1999/xlink" x="0px" y="0px"
	 width="412.479px" height="68.996px" viewBox="0 0 412.479 68.996" enable-background="new 0 0 412.479 68.996"
	 xml:space="preserve">
<path fill="#FFFFFF" d="M25.551,14.539c1.287,0,2.456,0.211,3.504,0.634c1.049,0.423,2.023,0.893,2.925,1.407
	c0.901,0.516,1.756,0.984,2.566,1.407c0.809,0.423,1.637,0.635,2.483,0.635c0.663-0.036,1.416-0.128,2.263-0.276
	c0.735-0.146,1.591-0.377,2.566-0.689c0.975-0.312,2.07-0.781,3.284-1.407c-1.214,1.178-2.199,2.161-2.953,2.952
	c-0.754,0.792-1.333,1.445-1.738,1.959c-0.479,0.59-0.828,1.049-1.048,1.38c-0.221,0.405-0.552,1.013-0.993,1.821
	c-0.405,0.736-0.957,1.721-1.656,2.952c-0.699,1.233-1.582,2.843-2.649,4.829c0-2.539-0.248-4.506-0.745-5.905
	c-0.497-1.397-1.04-2.464-1.628-3.2c-0.7-0.846-1.49-1.38-2.373-1.601c-0.81-0.11-1.62,0.027-2.428,0.413
	c-0.81,0.387-1.61,0.948-2.4,1.684c-0.792,0.736-1.545,1.609-2.263,2.621c-0.717,1.013-1.361,2.07-1.932,3.174
	c-0.571,1.104-1.04,2.217-1.407,3.338c-0.368,1.123-0.607,2.162-0.717,3.119c-0.11,0.846-0.129,1.83-0.055,2.951
	c0.073,1.123,0.239,2.264,0.497,3.422c0.257,1.159,0.588,2.29,0.994,3.395c0.404,1.104,0.91,2.088,1.518,2.951
	c0.607,0.865,1.296,1.564,2.069,2.098c0.772,0.533,1.655,0.782,2.649,0.745c1.104-0.073,2.188-0.405,3.256-0.993
	c0.919-0.479,1.857-1.223,2.814-2.235c0.956-1.011,1.784-2.456,2.483-4.332l8.167,1.49c-2.355,2.87-4.645,5.021-6.871,6.456
	c-2.226,1.436-4.222,2.447-5.987,3.035c-2.061,0.662-4.01,0.975-5.85,0.938c-2.318-0.258-4.489-0.956-6.512-2.097
	c-2.024-1.141-3.762-2.529-5.215-4.166c-1.454-1.637-2.585-3.431-3.394-5.381c-0.809-1.949-1.159-3.863-1.048-5.74
	c0.074-1.25,0.331-2.712,0.772-4.387c0.441-1.674,1.039-3.394,1.793-5.16c0.753-1.766,1.664-3.494,2.731-5.187
	c1.067-1.692,2.244-3.21,3.532-4.553c1.287-1.343,2.694-2.429,4.221-3.257C22.303,14.952,23.895,14.539,25.551,14.539z"/>
<path fill="#FFFFFF" d="M44.295,10.035c1.178,0.185,2.244,0.34,3.201,0.469c0.957,0.129,1.784,0.23,2.483,0.304
	c0.809,0.11,1.526,0.202,2.152,0.276c0.772,0.109,1.932-0.027,3.477-0.414c1.545-0.387,3.247-0.754,5.104-1.104
	c1.857-0.35,3.761-0.553,5.712-0.607c1.949-0.055,3.733,0.303,5.353,1.076c1.619,0.772,2.943,1.545,3.974,2.318
	c1.029,0.771,1.849,1.591,2.456,2.455c0.607,0.865,1.039,1.775,1.297,2.731c0.257,0.957,0.404,2.006,0.441,3.146
	c-0.037,1.693-0.441,3.33-1.214,4.912c-0.331,0.662-0.764,1.352-1.297,2.068c-0.534,0.718-1.187,1.408-1.959,2.07
	c-0.773,0.662-1.683,1.287-2.732,1.876c-1.048,0.589-2.272,1.104-3.669,1.545c1.36,0.405,2.492,0.884,3.394,1.435
	c0.901,0.553,1.628,1.068,2.18,1.545c0.663,0.59,1.159,1.16,1.49,1.711c0.404,0.773,0.68,1.436,0.828,1.987
	c0.146,0.552,0.249,1.075,0.304,1.573c0.055,0.496,0.138,1.002,0.248,1.518s0.349,1.104,0.718,1.766
	c0.294,0.516,0.643,1.048,1.048,1.6c0.367,0.479,0.8,0.994,1.297,1.545c0.497,0.553,1.112,1.086,1.849,1.602
	c-1.03,0.037-1.978,0.055-2.842,0.055c-0.865,0-1.609,0-2.235,0c-0.736,0-1.435-0.018-2.097-0.055
	c-0.663-0.037-1.49-0.056-2.483-0.056c-0.847,0-1.923,0-3.229,0c-1.306,0-2.879,0.019-4.718,0.056
	c0.809-0.626,1.471-1.251,1.987-1.877c0.515-0.625,0.919-1.195,1.214-1.711c0.331-0.588,0.57-1.158,0.717-1.711
	c0.184-0.992,0.202-2.022,0.055-3.09c-0.11-0.92-0.405-1.939-0.883-3.062c-0.479-1.122-1.251-2.254-2.318-3.395
	c-1.067,0.186-1.959,0.322-2.676,0.414s-1.334,0.176-1.849,0.248c-0.589,0.074-1.067,0.13-1.435,0.166
	c-0.331,0.037-0.699,0.074-1.104,0.11c-0.331,0.037-0.69,0.083-1.076,0.138c-0.386,0.056-0.745,0.12-1.076,0.193
	c-0.074,1.582-0.074,2.953,0,4.111c0.073,1.158,0.166,2.125,0.276,2.897c0.147,0.92,0.312,1.71,0.497,2.372
	c0.184,0.663,0.441,1.307,0.772,1.932c0.257,0.516,0.588,1.059,0.993,1.629c0.404,0.57,0.864,1.039,1.38,1.406
	c-0.958,0-1.868,0-2.732,0c-0.865,0-1.647-0.018-2.345-0.055c-0.81,0-1.582-0.018-2.318-0.055c-0.736-0.037-1.564-0.056-2.483-0.056
	c-0.772,0-1.683,0-2.731,0s-2.18,0.019-3.394,0.056c0.958-0.994,1.711-1.84,2.263-2.539c0.552-0.698,0.975-1.287,1.27-1.766
	c0.331-0.516,0.533-0.957,0.607-1.324c0.073-0.588,0.138-1.646,0.193-3.174c0.055-1.525,0.101-3.283,0.138-5.27
	c0.036-1.986,0.055-4.064,0.055-6.236c0-2.17-0.019-4.203-0.055-6.098c-0.037-1.895-0.074-3.522-0.11-4.884
	c-0.037-1.36-0.074-2.226-0.11-2.594c-0.11-0.662-0.35-1.325-0.717-1.987c-0.295-0.588-0.718-1.25-1.27-1.986
	C46.006,11.507,45.253,10.771,44.295,10.035z M65.155,29.46c0.367-0.221,0.681-0.441,0.938-0.662
	c0.257-0.221,0.478-0.579,0.662-1.076c0.184-0.497,0.34-1.204,0.469-2.124s0.285-2.171,0.469-3.753
	c0.146-1.581,0.046-2.888-0.304-3.919c-0.35-1.029-0.81-1.848-1.379-2.455c-0.571-0.607-1.196-1.029-1.876-1.27
	c-0.681-0.238-1.278-0.358-1.793-0.358c-1.03,0-2.042,0.313-3.035,0.938c-0.993,0.625-1.748,1.472-2.262,2.538
	c-0.185,0.479-0.35,1.27-0.497,2.373c-0.11,0.957-0.185,2.282-0.221,3.974c-0.037,1.692,0.018,3.918,0.166,6.677
	c1.398,0.221,2.63,0.304,3.698,0.249c1.066-0.056,1.967-0.175,2.704-0.359C63.776,30.049,64.529,29.791,65.155,29.46z"/>
<path fill="#FFFFFF" d="M105.975,17.711c1.986,0.074,4.001,0.433,6.042,1.076c2.042,0.644,3.927,1.674,5.657,3.09
	c1.729,1.417,3.201,3.238,4.415,5.463c1.214,2.227,1.968,4.939,2.263,8.141c0.258,2.612-0.064,5.196-0.966,7.753
	c-0.902,2.558-2.144,4.903-3.725,7.036c-1.582,2.135-3.403,3.945-5.463,5.436c-2.061,1.49-4.121,2.475-6.181,2.953
	c-1.251,0.295-2.621,0.322-4.111,0.082c-1.49-0.238-2.999-0.698-4.525-1.379c-1.527-0.681-3.017-1.555-4.47-2.622
	c-1.454-1.066-2.769-2.29-3.946-3.669c-1.178-1.381-2.162-2.879-2.953-4.498c-0.792-1.619-1.278-3.311-1.462-5.077
	c-0.184-1.472-0.193-3.099-0.027-4.884c0.166-1.784,0.515-3.568,1.048-5.354c0.533-1.783,1.288-3.512,2.263-5.187
	c0.974-1.674,2.216-3.146,3.725-4.415c1.508-1.27,3.283-2.263,5.325-2.98C100.925,17.959,103.289,17.637,105.975,17.711z
	 M96.097,40.061c-0.516,3.938-0.138,7.101,1.131,9.492c1.27,2.391,3.191,3.844,5.767,4.359c1.25,0.258,2.456-0.009,3.615-0.801
	c1.159-0.791,2.216-1.939,3.173-3.449c0.956-1.508,1.784-3.273,2.483-5.297c0.698-2.023,1.214-4.139,1.545-6.347
	c0.332-2.208,0.359-4.202,0.083-5.987c-0.276-1.784-0.745-3.312-1.407-4.58c-0.662-1.27-1.462-2.254-2.4-2.953
	c-0.938-0.698-1.904-1.084-2.897-1.158c-1.729-0.111-3.238,0.34-4.525,1.352c-1.289,1.012-2.373,2.327-3.256,3.945
	c-0.883,1.619-1.592,3.441-2.125,5.464C96.749,36.124,96.354,38.111,96.097,40.061z"/>
<path fill="#FFFFFF" d="M155.754,46.978c-1.904,0.568-3.927,0.876-6.068,0.923c-2.14,0.047-4.256-0.323-6.349-1.107
	c-2.093-0.787-4.072-2.038-5.937-3.755c-1.865-1.718-3.45-4.045-4.758-6.981c-1.083-2.391-1.609-4.941-1.578-7.652
	c0.032-2.711,0.455-5.332,1.266-7.859c0.812-2.53,1.955-4.83,3.426-6.903c1.473-2.073,3.107-3.668,4.904-4.783
	c1.09-0.681,2.378-1.147,3.867-1.399c1.488-0.252,3.064-0.302,4.728-0.147c1.665,0.153,3.356,0.503,5.076,1.046
	c1.719,0.543,3.357,1.279,4.916,2.206c1.56,0.929,2.972,2.032,4.241,3.311c1.27,1.279,2.275,2.725,3.016,4.338
	c0.648,1.334,1.179,2.872,1.597,4.615c0.416,1.743,0.659,3.546,0.728,5.407c0.068,1.859-0.09,3.738-0.476,5.639
	c-0.385,1.897-1.088,3.69-2.108,5.378c-1.021,1.687-2.382,3.198-4.084,4.533C160.456,45.12,158.321,46.185,155.754,46.978z
	 M157.925,22.639c-0.778-3.895-2.152-6.768-4.122-8.625c-1.971-1.854-4.257-2.614-6.861-2.275c-1.268,0.158-2.323,0.798-3.167,1.921
	c-0.842,1.121-1.475,2.55-1.896,4.286c-0.42,1.735-0.637,3.673-0.649,5.813c-0.011,2.141,0.181,4.309,0.577,6.507
	c0.396,2.196,1.011,4.094,1.846,5.696c0.835,1.602,1.77,2.896,2.805,3.885c1.035,0.99,2.109,1.664,3.222,2.024
	s2.152,0.416,3.116,0.165c1.674-0.449,2.957-1.361,3.851-2.733c0.895-1.372,1.499-2.966,1.815-4.782
	c0.316-1.817,0.401-3.771,0.255-5.856C158.573,26.576,158.308,24.566,157.925,22.639z"/>
<path fill="#FFFFFF" d="M175.031,17.918c1.25,0.185,2.363,0.312,3.339,0.387c0.974,0.074,1.793,0.146,2.455,0.221
	c0.772,0.074,1.435,0.109,1.986,0.109h2.152c1.436,0,3.808-0.055,7.119-0.165c-0.81,0.258-1.481,0.626-2.015,1.104
	s-0.965,0.975-1.297,1.489c-0.405,0.589-0.699,1.196-0.883,1.821c-0.221,0.772-0.423,1.803-0.606,3.09
	c-0.185,1.141-0.359,2.631-0.524,4.471c-0.166,1.84-0.322,4.139-0.469,6.897c1.581-1.802,2.97-3.402,4.166-4.801
	c1.195-1.397,2.235-2.63,3.118-3.697s1.628-1.987,2.234-2.759c0.607-0.773,1.112-1.436,1.518-1.987
	c0.957-1.251,1.509-2.097,1.656-2.538c0.036-0.258,0.018-0.57-0.056-0.938c-0.074-0.294-0.185-0.653-0.331-1.076
	c-0.147-0.423-0.368-0.892-0.662-1.407c1.471,0.074,2.731,0.129,3.78,0.166s1.922,0.074,2.621,0.109
	c0.809,0.037,1.471,0.056,1.986,0.056h2.318c0.846,0,1.949-0.009,3.311-0.027s3.071-0.046,5.133-0.083
	c-1.362,0.331-2.649,0.772-3.863,1.324c-1.214,0.553-2.3,1.086-3.256,1.601c-1.104,0.626-2.134,1.27-3.091,1.932
	c-0.957,0.736-2.023,1.601-3.2,2.594c-0.993,0.847-2.152,1.886-3.477,3.118s-2.76,2.658-4.305,4.276
	c1.655,3.237,3.099,5.896,4.332,7.974c1.232,2.08,2.271,3.744,3.118,4.994c0.956,1.473,1.766,2.594,2.428,3.367
	c0.662,0.699,1.436,1.416,2.318,2.152c0.735,0.625,1.655,1.315,2.759,2.068c1.104,0.755,2.373,1.482,3.808,2.181l-15.728,0.772
	c0.221-0.294,0.358-0.652,0.414-1.076c0.055-0.422,0.083-0.818,0.083-1.187c0-0.404-0.037-0.846-0.11-1.324
	c-0.147-0.589-0.534-1.546-1.159-2.87c-0.516-1.14-1.307-2.75-2.373-4.828c-1.067-2.078-2.538-4.829-4.415-8.25l-4.69,4.911
	c-0.185,1.178-0.275,2.245-0.275,3.2c0,0.957,0.036,1.748,0.11,2.373c0.11,0.773,0.257,1.436,0.441,1.986
	c0.221,0.553,0.532,1.179,0.938,1.877c0.331,0.626,0.772,1.361,1.325,2.207c0.552,0.848,1.25,1.785,2.097,2.814
	c-0.847-0.221-1.692-0.377-2.539-0.469s-1.619-0.156-2.317-0.193c-0.81-0.036-1.582-0.018-2.317,0.056
	c-0.772,0.073-1.675,0.185-2.704,0.331c-0.883,0.147-1.969,0.331-3.256,0.552c-1.288,0.221-2.76,0.497-4.415,0.827
	c0.809-0.477,1.453-0.992,1.932-1.545c0.478-0.552,0.864-1.084,1.159-1.6c0.331-0.588,0.552-1.159,0.662-1.711
	c0.073-0.479,0.138-1.508,0.192-3.091c0.056-1.581,0.092-3.43,0.11-5.546c0.019-2.115,0.009-4.35-0.027-6.705
	c-0.037-2.354-0.074-4.561-0.11-6.622c-0.037-2.06-0.083-3.816-0.138-5.271c-0.056-1.453-0.102-2.345-0.138-2.676
	c-0.11-0.516-0.258-1.066-0.441-1.656c-0.185-0.514-0.434-1.057-0.745-1.627C175.904,19.031,175.508,18.47,175.031,17.918z"/>
<path fill="#FFFFFF" d="M230.787,13.863c1.178,0.295,2.299,0.516,3.366,0.662s2.005,0.258,2.814,0.33
	c0.957,0.111,1.84,0.148,2.649,0.111c1.029,0,2.326-0.092,3.891-0.276c1.563-0.184,3.173-0.358,4.828-0.524
	c1.656-0.165,3.247-0.275,4.773-0.33c1.526-0.057,2.769,0.046,3.726,0.303c0.956,0.221,1.939,0.562,2.952,1.021
	c1.012,0.46,1.94,1.029,2.787,1.711c0.846,0.681,1.545,1.471,2.097,2.372s0.864,1.923,0.938,3.063
	c-0.037,1.434-0.368,2.777-0.994,4.027c-0.516,1.068-1.379,2.162-2.593,3.284c-1.215,1.122-2.962,1.978-5.243,2.565
	c1.14,0.148,2.125,0.396,2.952,0.746c0.828,0.35,1.546,0.754,2.152,1.213c0.607,0.461,1.104,0.967,1.49,1.518
	c0.387,0.553,0.689,1.104,0.91,1.656c0.552,1.288,0.81,2.723,0.773,4.305c-0.222,2.061-0.635,3.697-1.242,4.911
	s-1.297,2.151-2.069,2.814c-0.772,0.662-1.564,1.122-2.373,1.38c-0.81,0.258-1.545,0.46-2.207,0.606
	c-0.662,0.147-1.472,0.221-2.429,0.221s-1.978-0.027-3.062-0.083c-1.086-0.055-2.198-0.109-3.339-0.165s-2.227-0.046-3.256,0.027
	c-0.847,0.074-1.876,0.147-3.09,0.221c-1.03,0.074-2.318,0.157-3.863,0.249s-3.348,0.193-5.408,0.303
	c0.404-0.294,0.745-0.635,1.021-1.021c0.275-0.386,0.505-0.726,0.689-1.021c0.184-0.367,0.35-0.718,0.497-1.049
	c0.11-0.295,0.201-1.104,0.275-2.428c0.073-1.325,0.129-2.916,0.166-4.773c0.036-1.857,0.063-3.863,0.082-6.016s0-4.23-0.055-6.236
	c-0.056-2.004-0.13-3.789-0.221-5.353c-0.093-1.563-0.212-2.694-0.358-3.394c-0.222-0.773-0.516-1.563-0.884-2.373
	c-0.295-0.699-0.708-1.453-1.241-2.263C232.157,15.371,231.523,14.6,230.787,13.863z M242.155,45.648
	c1.361,0.7,2.557,1.16,3.587,1.381s1.895,0.33,2.594,0.33c0.809,0,1.509-0.109,2.098-0.33c0.698-0.332,1.388-0.781,2.069-1.353
	c0.68-0.569,1.194-1.251,1.545-2.042c0.35-0.791,0.487-1.674,0.414-2.648c-0.074-0.975-0.497-2.051-1.27-3.229
	c-0.699-0.846-1.545-1.508-2.538-1.986c-0.884-0.404-1.996-0.662-3.339-0.773c-1.344-0.109-2.989,0.203-4.939,0.938L242.155,45.648z
	 M242.431,19.492c0,0.146,0.018,0.644,0.055,1.489c0.036,0.736,0.083,1.868,0.139,3.394c0.055,1.527,0.138,3.689,0.248,6.484
	c0.919,0.406,1.821,0.617,2.704,0.635c0.883,0.02,1.674-0.008,2.373-0.082c0.809-0.111,1.581-0.295,2.317-0.553
	c0.993-0.404,1.774-1.066,2.346-1.986c0.569-0.92,0.956-1.885,1.158-2.897c0.202-1.011,0.249-1.968,0.139-2.869
	s-0.351-1.554-0.718-1.96c-0.699-0.625-1.564-1.139-2.594-1.545c-0.883-0.33-1.996-0.561-3.339-0.689S244.307,18.977,242.431,19.492
	z"/>
<path fill="#FFFFFF" d="M286.639,18.265c1.939-0.44,3.978-0.613,6.117-0.519c2.138,0.096,4.225,0.604,6.261,1.526
	s3.928,2.303,5.675,4.14c1.748,1.838,3.175,4.265,4.285,7.281c0.923,2.457,1.278,5.037,1.067,7.739
	c-0.212,2.704-0.808,5.291-1.785,7.759c-0.978,2.471-2.27,4.69-3.875,6.661c-1.608,1.972-3.344,3.454-5.211,4.447
	c-1.132,0.607-2.449,0.987-3.95,1.14c-1.502,0.154-3.078,0.099-4.729-0.165c-1.651-0.264-3.315-0.725-4.994-1.381
	c-1.681-0.654-3.266-1.498-4.76-2.526c-1.494-1.031-2.83-2.225-4.013-3.585c-1.182-1.36-2.089-2.868-2.721-4.527
	c-0.559-1.375-0.986-2.944-1.287-4.712c-0.3-1.767-0.423-3.581-0.368-5.443c0.056-1.859,0.338-3.725,0.849-5.594
	c0.51-1.869,1.33-3.611,2.46-5.227c1.13-1.616,2.589-3.033,4.376-4.254C281.825,19.807,284.026,18.886,286.639,18.265z
	 M282.861,42.405c0.517,3.938,1.697,6.896,3.54,8.88c1.844,1.981,4.075,2.89,6.697,2.724c1.273-0.072,2.369-0.641,3.286-1.705
	c0.915-1.063,1.641-2.445,2.175-4.151c0.535-1.703,0.88-3.622,1.034-5.758c0.152-2.135,0.105-4.312-0.145-6.53
	s-0.736-4.152-1.465-5.807c-0.727-1.652-1.573-3.007-2.54-4.062c-0.968-1.056-1.995-1.801-3.081-2.234
	c-1.087-0.433-2.12-0.556-3.099-0.372c-1.699,0.339-3.04,1.164-4.023,2.474s-1.692,2.859-2.129,4.651
	c-0.435,1.792-0.649,3.736-0.642,5.826C282.475,38.434,282.606,40.456,282.861,42.405z"/>
<path fill="#FFFFFF" d="M336.209,10.711c1.986,0.074,4.001,0.433,6.043,1.076c2.041,0.644,3.927,1.674,5.656,3.09
	c1.729,1.417,3.2,3.238,4.415,5.463c1.214,2.227,1.967,4.939,2.262,8.141c0.258,2.612-0.064,5.196-0.965,7.753
	c-0.902,2.558-2.145,4.903-3.726,7.036c-1.582,2.135-3.403,3.945-5.463,5.436c-2.062,1.49-4.121,2.475-6.181,2.953
	c-1.251,0.295-2.621,0.322-4.111,0.082c-1.49-0.238-2.999-0.698-4.525-1.379c-1.527-0.681-3.017-1.555-4.47-2.622
	c-1.454-1.066-2.769-2.29-3.946-3.669c-1.178-1.381-2.161-2.879-2.952-4.498s-1.278-3.311-1.462-5.077
	c-0.185-1.472-0.193-3.099-0.028-4.884c0.166-1.784,0.516-3.568,1.049-5.354c0.533-1.783,1.287-3.512,2.263-5.187
	c0.975-1.674,2.216-3.146,3.725-4.415s3.284-2.263,5.325-2.98C331.16,10.959,333.524,10.637,336.209,10.711z M326.332,33.061
	c-0.516,3.938-0.138,7.101,1.131,9.492c1.27,2.391,3.191,3.844,5.767,4.359c1.251,0.258,2.456-0.009,3.615-0.801
	c1.158-0.791,2.216-1.939,3.173-3.449c0.956-1.508,1.784-3.273,2.483-5.297c0.698-2.023,1.214-4.139,1.545-6.347
	s0.359-4.202,0.083-5.987c-0.276-1.784-0.745-3.312-1.407-4.58c-0.662-1.27-1.463-2.254-2.4-2.953
	c-0.938-0.698-1.904-1.084-2.897-1.158c-1.729-0.111-3.237,0.34-4.525,1.352s-2.373,2.327-3.256,3.945
	c-0.883,1.619-1.592,3.441-2.124,5.464C326.984,29.124,326.588,31.111,326.332,33.061z"/>
<path fill="#FFFFFF" d="M359.736,16.397c1.283,0.106,2.418,0.164,3.404,0.173c0.985,0.012,1.815,0.032,2.49,0.062
	c0.783,0.024,1.45,0.017,2.001-0.02l2.146-0.146c1.432-0.097,3.786-0.312,7.069-0.649c-0.763,0.32-1.367,0.744-1.813,1.272
	c-0.448,0.527-0.788,1.066-1.028,1.617c-0.298,0.63-0.481,1.271-0.554,1.921c-0.081,0.803-0.099,1.866-0.052,3.187
	c0.02,1.167,0.109,2.686,0.271,4.549c0.16,1.857,0.409,4.164,0.748,6.915c1.234-1.894,2.321-3.579,3.254-5.057
	c0.937-1.48,1.75-2.789,2.439-3.924c0.689-1.136,1.271-2.117,1.742-2.94c0.471-0.826,0.858-1.533,1.167-2.122
	c0.741-1.341,1.147-2.242,1.221-2.704c-0.007-0.268-0.078-0.586-0.212-0.96c-0.123-0.297-0.293-0.658-0.509-1.084
	c-0.219-0.424-0.519-0.894-0.899-1.404c1.481-0.022,2.747-0.051,3.8-0.084c1.052-0.032,1.928-0.052,2.631-0.063
	c0.813-0.016,1.477-0.041,1.99-0.075l2.311-0.156c0.845-0.058,1.943-0.141,3.298-0.252c1.355-0.109,3.057-0.253,5.105-0.432
	c-1.308,0.435-2.523,0.977-3.649,1.627c-1.123,0.649-2.122,1.271-2.993,1.864c-1,0.715-1.922,1.443-2.768,2.185
	c-0.833,0.815-1.751,1.767-2.757,2.856c-0.848,0.925-1.825,2.056-2.933,3.39c-1.103,1.328-2.281,2.857-3.532,4.582
	c2.155,3.116,3.997,5.655,5.532,7.624c1.527,1.963,2.797,3.522,3.812,4.687c1.151,1.37,2.105,2.405,2.861,3.112
	c0.745,0.633,1.6,1.275,2.56,1.929c0.799,0.554,1.787,1.158,2.958,1.811c1.17,0.653,2.493,1.267,3.97,1.843l-14.975,1.755
	c0.166-0.293,0.243-0.645,0.23-1.054c-0.014-0.407-0.048-0.787-0.104-1.142c-0.063-0.387-0.167-0.807-0.312-1.262
	c-0.234-0.558-0.757-1.453-1.567-2.69c-0.679-1.069-1.701-2.579-3.068-4.532c-1.376-1.962-3.261-4.567-5.666-7.825l-3.739,5.154
	c0.023,1.167,0.119,2.217,0.281,3.149c0.165,0.933,0.334,1.699,0.513,2.302c0.238,0.742,0.492,1.374,0.764,1.896
	c0.307,0.519,0.712,1.103,1.22,1.748c0.425,0.582,0.973,1.26,1.645,2.036c0.67,0.775,1.496,1.626,2.476,2.556
	c-0.849-0.157-1.685-0.251-2.513-0.283c-0.827-0.033-1.58-0.045-2.256-0.035c-0.783,0.018-1.521,0.086-2.216,0.203
	c-0.728,0.12-1.575,0.284-2.537,0.492c-0.821,0.197-1.832,0.441-3.026,0.736c-1.197,0.292-2.559,0.65-4.086,1.071
	c0.69-0.505,1.216-1.039,1.576-1.595c0.361-0.558,0.638-1.092,0.829-1.604c0.214-0.584,0.326-1.146,0.334-1.683
	c-0.014-0.464-0.135-1.458-0.364-2.989c-0.228-1.533-0.523-3.33-0.886-5.394c-0.363-2.072-0.777-4.268-1.242-6.593
	c-0.467-2.333-0.909-4.531-1.325-6.594c-0.418-2.071-0.792-3.841-1.116-5.311c-0.329-1.472-0.543-2.378-0.64-2.714
	c-0.207-0.52-0.459-1.07-0.752-1.663c-0.282-0.514-0.632-1.054-1.052-1.619C360.82,17.484,360.319,16.934,359.736,16.397z"/>
</svg>
